<?xml version="1.0" encoding="UTF-8"?>
<svg width="744.09" height="744.09" viewBox="0 0 744.09448819 1052.3622047" xmlns="http://www.w3.org/2000/svg" xmlns:xlink="http://www.w3.org/1999/xlink">
 <defs>
  <linearGradient id="b">
   <stop stop-color="#8a0" offset="0"/>
   <stop stop-color="#8a0" stop-opacity="0" offset="1"/>
  </linearGradient>
  <linearGradient id="f">
   <stop stop-color="#df5" offset="0"/>
   <stop stop-color="#df5" stop-opacity="0" offset="1"/>
  </linearGradient>
  <linearGradient id="c">
   <stop stop-color="#677821" offset="0"/>
   <stop stop-color="#677821" stop-opacity="0" offset="1"/>
  </linearGradient>
  <linearGradient id="d">
   <stop stop-color="#d3f44f" offset="0"/>
   <stop stop-color="#d3f44f" stop-opacity="0" offset="1"/>
  </linearGradient>
  <linearGradient id="e">
   <stop stop-color="#bcd35f" offset="0"/>
   <stop stop-color="#bcd35f" stop-opacity="0" offset="1"/>
  </linearGradient>
  <linearGradient id="a">
   <stop stop-color="#89a02c" offset="0"/>
   <stop stop-color="#89a02c" stop-opacity="0" offset="1"/>
  </linearGradient>
  <linearGradient id="al" x1="292.81" x2="291.53" y1="402.42" y2="406.62" gradientUnits="userSpaceOnUse">
   <stop stop-color="#697b22" offset="0"/>
   <stop stop-color="#697b22" stop-opacity="0" offset="1"/>
  </linearGradient>
  <linearGradient id="aq" x1="349.07" x2="328.7" y1="414.91" y2="441.95" gradientUnits="userSpaceOnUse">
   <stop stop-color="#90a82e" offset="0"/>
   <stop stop-color="#90a82e" stop-opacity="0" offset="1"/>
  </linearGradient>
  <linearGradient id="ap" x1="325.12" x2="319.27" y1="420.74" y2="428.23" gradientUnits="userSpaceOnUse">
   <stop stop-color="#91b20e" offset="0"/>
   <stop stop-color="#91b20e" stop-opacity="0" offset="1"/>
  </linearGradient>
  <linearGradient id="an" x1="324.39" x2="331.47" y1="431.79" y2="421.45" gradientUnits="userSpaceOnUse">
   <stop stop-color="#bedb4f" offset="0"/>
   <stop stop-color="#bedb4f" stop-opacity="0" offset="1"/>
  </linearGradient>
  <linearGradient id="am" x1="310.24" x2="323.56" y1="377.61" y2="387.12" gradientUnits="userSpaceOnUse" xlink:href="#c"/>
  <linearGradient id="ao" x1="290.71" x2="290.08" y1="404.21" y2="397.93" gradientUnits="userSpaceOnUse" xlink:href="#f"/>
  <radialGradient id="ag" cx="353.36" cy="366.79" r="12.185" gradientTransform="matrix(2.695 -1.7697 1.6703 1.3363 -1223.5 489.46)" gradientUnits="userSpaceOnUse">
   <stop stop-color="#447821" offset="0"/>
   <stop stop-color="#447821" stop-opacity="0" offset="1"/>
  </radialGradient>
  <radialGradient id="af" cx="283.07" cy="376.73" r="18.85" gradientTransform="matrix(-.56938 -.91101 .82685 -.51678 114.72 820.55)" gradientUnits="userSpaceOnUse">
   <stop stop-color="#3b681d" offset="0"/>
   <stop stop-color="#3b681d" stop-opacity="0" offset="1"/>
  </radialGradient>
  <radialGradient id="ae" cx="284.35" cy="381.86" r="7.4499" gradientTransform="matrix(.71186 -.0678 .11135 1.1691 37.395 -49.339)" gradientUnits="userSpaceOnUse">
   <stop stop-color="#17280b" offset="0"/>
   <stop stop-color="#17280b" stop-opacity="0" offset="1"/>
  </radialGradient>
  <radialGradient id="x" cx="344.38" cy="336.68" r="57" gradientTransform="matrix(.66877 -1.2872 .68729 .53937 -146.76 556.66)" gradientUnits="userSpaceOnUse">
   <stop stop-color="#cfa" offset="0"/>
   <stop stop-color="#b1d22e" stop-opacity="0" offset="1"/>
  </radialGradient>
  <radialGradient id="n" cx="333.86" cy="363.55" r="28.903" gradientTransform="matrix(.73425 -.59595 .08404 .10355 68.671 498.44)" gradientUnits="userSpaceOnUse">
   <stop stop-color="#cdde87" offset="0"/>
   <stop stop-color="#cdde87" stop-opacity="0" offset="1"/>
  </radialGradient>
  <radialGradient id="j" cx="307.57" cy="408.53" r="3.693" gradientTransform="matrix(-.05078 -2.8771 3.2027 -.05653 -990.7 1307.1)" gradientUnits="userSpaceOnUse">
   <stop stop-color="#445016" offset="0"/>
   <stop stop-color="#445016" stop-opacity="0" offset="1"/>
  </radialGradient>
  <radialGradient id="h" cx="292.48" cy="392.04" r="8.0625" gradientTransform="matrix(-1.876 3.1318 -1.1106 -.66525 1272.8 -273.96)" gradientUnits="userSpaceOnUse">
   <stop stop-color="#9cb632" offset="0"/>
   <stop stop-color="#9cb632" stop-opacity="0" offset="1"/>
  </radialGradient>
  <radialGradient id="g" cx="284.55" cy="364.62" r="30.438" gradientTransform="matrix(-.77168 -.2298 .01708 -.18759 481.31 476.29)" gradientUnits="userSpaceOnUse">
   <stop stop-color="#e5ff80" offset="0"/>
   <stop stop-color="#e5ff80" stop-opacity="0" offset="1"/>
  </radialGradient>
  <radialGradient id="aa" cx="317.97" cy="440.91" r="8.2859" gradientTransform="matrix(.03523 -1.2978 1.934 .0525 -553.01 836.5)" gradientUnits="userSpaceOnUse">
   <stop stop-color="#def978" offset="0"/>
   <stop stop-color="#def978" stop-opacity="0" offset="1"/>
  </radialGradient>
  <radialGradient id="y" cx="286.48" cy="447.37" r="8.2799" gradientTransform="matrix(-1.0906 -.46667 .51743 -1.2092 363.73 1115.7)" gradientUnits="userSpaceOnUse">
   <stop stop-color="#c5e158" offset="0"/>
   <stop stop-color="#c5e158" stop-opacity="0" offset="1"/>
  </radialGradient>
  <radialGradient id="w" cx="271.18" cy="408.53" r="7.25" gradientTransform="matrix(-.79955 -.92026 .74186 -.64456 184.92 921.42)" gradientUnits="userSpaceOnUse">
   <stop stop-color="#8eaf09" offset="0"/>
   <stop stop-color="#8eaf09" stop-opacity="0" offset="1"/>
  </radialGradient>
  <radialGradient id="ak" cx="298" cy="437.33" r="13" gradientTransform="matrix(1.5941 -.0726 .00913 .20054 -181.54 365.18)" gradientUnits="userSpaceOnUse">
   <stop stop-color="#abc837" offset="0"/>
   <stop stop-color="#abc837" stop-opacity="0" offset="1"/>
  </radialGradient>
  <radialGradient id="aj" cx="299.5" cy="433.84" r="11.455" gradientTransform="matrix(-.01486 .40056 -.7229 -.02681 617.57 325.78)" gradientUnits="userSpaceOnUse">
   <stop stop-color="#95b615" offset="0"/>
   <stop stop-color="#95b615" stop-opacity="0" offset="1"/>
  </radialGradient>
  <radialGradient id="ai" cx="297.77" cy="403.95" r="11.908" gradientTransform="matrix(-1.0986 -1.247 .77611 -.68371 307.59 1068.3)" gradientUnits="userSpaceOnUse">
   <stop stop-color="#a2bd34" offset="0"/>
   <stop stop-color="#a2bd34" stop-opacity="0" offset="1"/>
  </radialGradient>
  <radialGradient id="u" cx="309.71" cy="399.92" r="3.7565" gradientTransform="matrix(-.30588 -2.3962 1.6203 -.20683 -243.52 1225.9)" gradientUnits="userSpaceOnUse">
   <stop stop-color="#c2e145" offset="0"/>
   <stop stop-color="#c2e145" stop-opacity="0" offset="1"/>
  </radialGradient>
  <radialGradient id="ah" cx="291.71" cy="378.66" r="22.08" gradientTransform="matrix(-.32085 -.31404 .09159 -.09357 341.68 493.19)" gradientUnits="userSpaceOnUse" xlink:href="#a"/>
  <radialGradient id="t" cx="385.6" cy="341.78" r="35.539" gradientTransform="matrix(-.65955 1.4626 -.64544 -.29107 823.92 -124.88)" gradientUnits="userSpaceOnUse" xlink:href="#c"/>
  <radialGradient id="s" cx="263.57" cy="407.98" r="23.745" gradientTransform="matrix(-.60715 -.66949 .86583 -.7852 83.792 882.91)" gradientUnits="userSpaceOnUse" xlink:href="#a"/>
  <radialGradient id="r" cx="306.31" cy="379.36" r="7.4375" gradientTransform="matrix(1.0084 2.7731 -1.9744 .71794 748.24 -743.94)" gradientUnits="userSpaceOnUse" xlink:href="#a"/>
  <radialGradient id="q" cx="311.54" cy="411.35" r="3.9844" gradientTransform="matrix(-.28235 -3.6392 2.9755 -.23086 -833.13 1627.7)" gradientUnits="userSpaceOnUse" xlink:href="#a"/>
  <radialGradient id="p" cx="301.23" cy="397.62" r="3.8763" gradientTransform="matrix(.75247 -1.0033 .90438 .67829 -285.66 429.48)" gradientUnits="userSpaceOnUse" xlink:href="#e"/>
  <radialGradient id="o" cx="299.68" cy="406.18" r="4.375" gradientTransform="matrix(.20001 2.6857 -2.1084 .15702 1094.5 -463.64)" gradientUnits="userSpaceOnUse" xlink:href="#e"/>
  <radialGradient id="m" cx="343.61" cy="389.73" r="24.821" gradientTransform="matrix(1.4574 -1.0603 .22264 .30602 -231.93 625.6)" gradientUnits="userSpaceOnUse" xlink:href="#f"/>
  <radialGradient id="l" cx="246.96" cy="385.52" r="10.413" gradientTransform="matrix(.58339 .19504 -.46633 1.3948 282.66 -201.05)" gradientUnits="userSpaceOnUse" xlink:href="#d"/>
  <radialGradient id="k" cx="296.1" cy="380.03" r="6.0104" gradientTransform="matrix(-.01503 -3.2069 .93844 -.0044 -54.494 1328.3)" gradientUnits="userSpaceOnUse" xlink:href="#d"/>
  <radialGradient id="i" cx="330.79" cy="424.67" r="17.131" gradientTransform="matrix(.78805 -1.5469 1.1992 .61094 -430.21 662.75)" gradientUnits="userSpaceOnUse" xlink:href="#b"/>
  <radialGradient id="ab" cx="376.75" cy="402.5" r="15.25" gradientTransform="matrix(-.78689 .69672 -.40481 -.4572 824.39 314.4)" gradientUnits="userSpaceOnUse" xlink:href="#c"/>
  <radialGradient id="z" cx="254.19" cy="400.35" r="8.3969" gradientTransform="matrix(.66776 1.6816 -1.0982 .43609 533.19 -195.96)" gradientUnits="userSpaceOnUse" xlink:href="#c"/>
  <radialGradient id="ad" cx="398.25" cy="343.17" r="9.9385" gradientTransform="matrix(1.5048 -5.4334 4.2865 1.1871 -1672 2123.6)" gradientUnits="userSpaceOnUse" xlink:href="#b"/>
  <radialGradient id="ac" cx="257.99" cy="326.3" r="4.3426" gradientTransform="matrix(-.92184 -7.7751 5.088 -.60325 -1183.6 2534.6)" gradientUnits="userSpaceOnUse" xlink:href="#b"/>
  <radialGradient id="v" cx="304.14" cy="472.18" r="26.439" gradientTransform="matrix(.43477 .08372 -.01655 .08592 179.73 392.89)" gradientUnits="userSpaceOnUse" xlink:href="#b"/>
 </defs>
 <path d="m378.81 385.68c-30.964 13.574-38.771 67.787-53.672 72.928-17.931 6.1871-44.586 2.0257-44.882-3.8247s-12.816-43.261-24.043-60.861l-8.7249-12.607 131.32 4.364z" fill="#abc837"/>
 <path d="m242.74 352.5c6.0643 18.399 5.8309 12.547 0.51291 34.037-1.3246 5.3528 21.69 13.462 29.627 33.968 7.6351 19.725-1.4744 16.871 29.135 19.064 57.067 4.0903-11.313-27.787 91.732-58.223 24.625-46.414 24.684-82.013 11.625-106.66s-39.238-38.331-67.086-40.922-57.367 5.9137-77.107 25.655-29.703 50.72-18.439 93.076z" fill="#abc837"/>
 <path d="m288.64 376.1s-2.8363 9.2818-9.7243 13.637c-21.114 13.351-32.224 4.9802-29.677-23.838-4.498-8.3522-6.1363-15.288-7.8234-25.624l47.225 35.824z" fill="url(#s)"/>
 <path d="m246.19 345.1c27.167 10.709 42.33 31.304 42.33 31.304s-1.9634 4.7791-5.6861 7.4141c-5.9485 4.2105-14.531 3.2952-20.849-2.4714s-15.795-36.247-15.795-36.247z" fill="#2d5016"/>
 <path d="m286.74 372.95c-13.246-12.148-23.626-24.494-41.477-29.304 0 0 2.8533-0.0192 9.0548 0.73468 13.281 7.615 31.914 15.632 35.105 31.23z" fill="url(#ah)"/>
 <path d="m249.11 348.26s0.71429 5.5357 4.6429 14.464 7.2254 16.911 11.903 19.738c3.7948 2.2938 9.2117 3.2053 13.153 2.0689 4.5149-1.3018 8.0014-7.8175 8.0014-7.8175-11.088-12.502-22.003-21.704-37.7-28.454z" fill="url(#af)"/>
 <path d="m287.77 376.19c-1.389 2.3991-4.3332 5.111-6.0609 6.566-2.3991 2.0203-8.8388 2.5254-8.8388 2.5254s5.9294-2.8989 7.955-5.6821c2.3118-3.1764-0.50508-9.2176-1.6415-11.49s8.5863 8.0812 8.5863 8.0812z" fill="url(#ae)"/>
 <path d="m257.78 351.51-10.354-5.3664 2.1466 5.6821 2.8411 8.0181s-2.0203-5.8715-0.25254-7.4499 5.619-0.88388 5.619-0.88388z" fill="#233e11"/>
 <path d="m335.55 434.42c4.6815-24.327-0.85154-20.658 2.4799-26.625 4.0276-7.2141 26.247-15.449 31.666-16.474 1.1786-0.22295-5.7723 3.578-21.063 15.578-5.5308 4.3403-7.9936 10.011-8.4007 14.368s-4.6815 13.153-4.6815 13.153z" fill="url(#i)"/>
 <path d="m304.97 376.41c13.732-27.973 66.548-52.555 69.717-53.403s2.2537 34.553-18.795 47.899-38.953 12.897-50.922 5.504z" fill="url(#t)"/>
 <path d="m306.92 375.96c9.5493-21.813 54.282-45.876 57.026-46.867s5.3421 24.636-12.143 36.784-33.496 13.974-44.884 10.083z" fill="#efa"/>
 <path d="m307.13 376.88c9.5493-21.813 54.282-45.876 57.026-46.867s5.3421 24.636-12.143 36.784-33.496 13.974-44.884 10.083z" fill="#2d5016"/>
 <path d="m364.41 331.49c1.2758 12.606-3.3369 28.375-14.989 35.447-19.949 12.106-39.559 8.8739-39.559 8.8739s12.126-18.877 28.263-28.488c10.256-6.1079 26.285-15.833 26.285-15.833z" fill="url(#ag)"/>
 <path d="m362.52 346.64c-1.5152 4.7982-15.026 20.077-15.026 20.077s6.3134-4.4826 8.8388-7.2605c3.5985-4.1023 4.887-7.6157 6.1872-12.816z" fill="#5aa02c"/>
 <path d="m294.61 396.8c0.69837 3.2814-0.1964 11.358-0.1964 11.358-0.59605-8.0904-2.6126-8.4168-4.6974-9.3592-0.68483-5.4861 3.8743-5.7341 4.8938-1.999z" fill="#445016"/>
 <path d="m308.62 399.24c2.5-0.625 7.3839-5.3964 7.3839-5.3964s-3.227-8.1757-4.8447-11.03c-2.125-3.75-4.4786-6.375-4.4786-6.375l2.3143-8.4482s-5.125 7-5.375 10.125 3.1948 6.7206 2.625 10.25c-0.36448 2.2578-5.625 3.75-5.75 4.5s-0.25 2.75-0.25 2.75 3.875-3.75 5.75-2.125 2 3.375 2 4.125 0.625 1.625 0.625 1.625z" fill="url(#r)"/>
 <path d="m300.88 400.49s0.125 7.25 0.875 10.375 4.75 9.75 4.75 9.75-2.6176-1.3839-0.27665-8.3321c2.2875-6.7894 2.5266-11.918 2.5266-11.918s0-3.5-1.875-3.875-6 4-6 4z" fill="url(#q)"/>
 <path d="m301.02 397.54c-0.90258 3.4746 0.4659 11.733 0.4659 11.733 0.67899-8.4399 3.2576-9.0049 6.1048-10.215 0.84591-5.7547-5.2349-5.4978-6.5708-1.5175z" fill="#445016"/>
 <path d="m307.41 394.93c-1.591-0.61872-2.9168-0.79549-4.331 0.0884s-2.9168 4.2426-2.9168 5.6568-1.1925-3.525 0.0884-5.7452c1.3258-2.2981 3.3588-3.0936 4.331-2.6516s2.8284 2.6516 2.8284 2.6516z" fill="url(#p)"/>
 <path d="m295.22 400.55-1.2197 18.942 2.125-6.625 0.75 4.5 1.25-4.25 1.375 2.875 1.375-3.75 1.875 4.875-2.625-12.875s-0.29306-3.4463-0.74372-2.5063c-1.9797 4.1297-4.1616-1.1857-4.1616-1.1857z" fill="url(#o)"/>
 <path d="m371.94 323.16c-16.794 8.662-40.835 24.749-40.835 24.749l-16.971 14.142s12.021-15.556 25.102-24.042 32.704-14.849 32.704-14.849z" fill="url(#n)"/>
 <path d="m362.22 387.15c-15.203 6.5407-25.313 46.839-33.057 43.664-14.02-5.7474-8.6621-45.432 0.35355-48.26 4.5259-1.4199 20.333-8.4209 28.815-15.203 7.5077-6.0031 9.2002-23.115 18.738-21.92 32.221 4.0349-1.0137 43.834-14.849 41.719z" fill="url(#m)"/>
 <path d="m262.16 402.35c-5.1265-4.5962-8.6621-6.7175-12.374-9.7227s-7.6014-4.9497-5.6569-7.0711c-0.11522-12.234 8.1564-29.385 8.4853-14.672-1.2374 4.773-1.2374 18.031 1.2374 19.799s8.4853 2.2981 10.783 5.1265-2.4749 6.5407-2.4749 6.5407z" fill="url(#l)"/>
 <path d="m302.82 375.84a6.0104 19.622 0 1 1 -12.021 0 6.0104 19.622 0 1 1 12.021 0z" fill="url(#k)"/>
 <path d="m307.56 376.91s3.2981 1.399 8.3362 1.9294c5.4528 0.57399 13.612-0.35356 13.612-0.35356s-3.1959 8.0587-5.753 10.773c-2.2642 2.4033-2.6339 23.997-2.6339 23.997s-5.1132-20.319-8.9372-28.406c-1.4535-3.074-4.6239-7.9398-4.6239-7.9398z" fill="url(#am)"/>
 <path d="m309.54 404.3c-0.26517-1.9445 0.26516-9.9879-3.3588-10.43-2.0256-0.24703-3.2704 0.70711-3.2704 0.70711s1.149-1.8562 2.6516-2.3865 2.8284 0.35355 3.3588 0.97226 1.5026 4.5078 1.5026 4.5078z" fill="url(#u)"/>
 <path d="m301.26 401.94c-0.40258 3.8496 1.1534 18.858 1.1534 18.858 0.67899-8.4399 1.57-16.485 4.4174-17.695 2.2834-6.3172-0.35989-8.205-5.5708-1.1621z" fill="url(#j)"/>
 <path d="m288.5 399.49 1.375-8.375v-12.5s-4.75 6.625-7.875 10.125-8.25 5.125-8.25 5.125 1.25 0.375 5.625-0.125 9.125 5.75 9.125 5.75z" fill="url(#h)"/>
 <path transform="matrix(.88669 .30481 -.46236 .58455 185.38 65.476)" d="m304.75 341.3a30.438 16.914 0 1 1 -60.875 0 30.438 16.914 0 1 1 60.875 0z" fill="url(#g)"/>
 <path d="m291.82 406.26s-2.1654-6.9395-2.084-7.413c0.35528-2.0694 2.8655 1.5644 3.2652 2.5145 0.69162 1.6442 1.25 3.375 1.25 4.1875s0.0625 7.8125 0.0625 7.8125-0.5-3.3125-1.75-6.4375-0.62933 4.1345-0.62933 4.1345l-0.11428-4.7985z" fill="url(#al)"/>
 <path d="m376.88 268.19c-3.9052 0-7.0625 3.5441-7.0625 7.9375 0 1.8693 0.60319 3.5796 1.5625 4.9375-1.6326 2.1494-2.625 4.7734-2.625 7.625 0 7.2247 6.166 13.094 13.781 13.094s13.812-5.869 13.812-13.094c0-6.7829-5.4388-12.343-12.406-13-0.2035-4.1882-3.2888-7.5-7.0625-7.5z" fill="#9bb91c"/>
 <path transform="matrix(1.3333 0 0 1.0714 -122.92 -18.55)" d="m368.76 264.65a4.2426 4.9498 0 1 1 -8.4853 0 4.2426 4.9498 0 1 1 8.4853 0z" fill="#9bb91c"/>
 <g transform="translate(133.64 -25.456)" fill="#9bb91c">
  <path transform="matrix(1.1224 0 0 .96825 -15.932 9.7371)" d="m130.11 317.86c0 6.1508-3.8781 11.137-8.6621 11.137s-8.6621-4.9862-8.6621-11.137 3.8781-11.137 8.6621-11.137 8.6621 4.9862 8.6621 11.137z"/>
  <path d="m134.35 313.97c0 3.0266-2.4535 5.4801-5.4801 5.4801s-5.4801-2.4535-5.4801-5.4801 2.4535-5.4801 5.4801-5.4801 5.4801 2.4535 5.4801 5.4801z"/>
  <path d="m128.69 298.76c0 2.636-2.1369 4.773-4.773 4.773s-4.773-2.1369-4.773-4.773 2.1369-4.773 4.773-4.773 4.773 2.1369 4.773 4.773z"/>
  <path transform="matrix(.85 0 0 1 20.577 0)" d="m151.32 310.08c0 3.4171-3.1658 6.1872-7.0711 6.1872s-7.0711-2.7701-7.0711-6.1872 3.1658-6.1872 7.0711-6.1872 7.0711 2.7701 7.0711 6.1872z"/>
 </g>
 <path transform="matrix(1.3904 0 0 1.1313 -128.43 -58.019)" d="m385.25 314.99a57 57.125 0 1 1 -114 0 57 57.125 0 1 1 114 0z" fill="url(#x)"/>
 <path d="m393.33 380.43s10.454-29.566 13.435-44.901c2.7779-14.291 3.2796-44.431 4.0659-43.487 7.6565 26.458-4.5302 65.119-17.501 88.388z" fill="url(#ad)"/>
 <path d="m355.75 406.24s4.875-7 9.25-11.5c4.6542-4.7872 5.875-5.125 5.875-5.125s-14.077 6.4206-20.125 10c-6.125 3.625-10.375 8.625-10.375 8.625s7.75-6.875 11.125-5.875 4.25 3.875 4.25 3.875z" fill="url(#ab)"/>
 <path d="m263.28 406.07c6.8283 6.11 12.733 22.074 12.363 19.799 0.0556 2.3004-0.89222 2.0011-0.29831 9.5901-3.4636-6.8336-9.3768-23.274-12.065-29.389z" fill="url(#z)"/>
 <path d="m334 447.49c-4.7343 19.553-50.628 15.027-52.879 5.4305 21.379 7.3845 40.384 4.6149 52.879-5.4305z" fill="url(#v)"/>
 <path d="m349.07 410.42s-7.75 13.5-11 20.75c-2.8202 6.2911-9.375 19.25-9.375 19.25s1.125-12.25 4.375-19.25 16-20.75 16-20.75z" fill="url(#aq)"/>
 <path d="m282.5 336.05a5.25 5.6875 0 1 1 -10.5 0 5.25 5.6875 0 1 1 10.5 0z" fill="#abc837"/>
 <path d="m286.25 345.42a3.125 3.4375 0 1 1 -6.25 0 3.125 3.4375 0 1 1 6.25 0z" fill="#abc837"/>
 <path d="m370.88 388.39c-15.91 13.435-24.042 25.102-24.042 25.102l8.4853-13.789-9.1924 6.0104s10.253-15.203 19.799-20.506 20.86-8.1317 20.86-8.1317l-12.728 8.1317 6.7175-1.0607z" fill="#8a0"/>
 <path d="m327.02 418.88c-8.6243 4.1909-15.059 6.7305-22.492 5.1415-4.0485-0.86535-5.7364-1.1677-10.74 0.0919-3.9911 1.0048-10.164-1.3646-15.408-3.3736 7.2542 8.0969 13.707 12.135 21.995 12.037s17.551-4.9445 26.645-13.897z" fill="#668000" fill-opacity=".84302"/>
 <path d="m285.89 396.04c-6.5 5-25.637 5.9194-25.637 5.9194s3.375 2.296 6.6516 8.1516c3.6797 6.576 9.5711 9.5481 9.5711 9.5481s-5.8462-10.286-3.0962-12.536 12.26-10.834 12.51-11.084z" fill="url(#w)"/>
 <path d="m307.75 457.11c6.5-1 17-1.25 18-4.25s3.6621-8.872 1.75-11.5c-2.1318-2.9299-10.683-4.3268-18.015-4.8713-29.519-2.1923-19.291 10.795-15.735 13.871 1.3726 5.6429 9.7605 5.7868 14 6.75z" fill="url(#aa)"/>
 <path d="m295.25 439.86c-6.75 5-8.25 11.25-8.25 11.25s-2.25 6.75-4 5.5-9.25-28-9.25-28 9.7249-1.9246 12.725 0.32538 9.5251 10.675 8.7751 10.925z" fill="url(#y)"/>
 <path d="m323.15 416.14c8.5283 1.0384 5.2848 6.4208 3.8891 9.7227-1.1503 2.7214-4.0659 7.6014-4.0659 7.6014 10.148-10.428 12.384-19.036 0.17678-17.324z" fill="url(#an)"/>
 <path d="m327.21 418.67c-18.84 9.9728-30.478 11.045-48.625 2.125 15.569 14.072 32.912 8.885 48.625-2.125z" fill="#450" fill-opacity=".84302"/>
 <path d="m326.73 419.25c-6.25 5.25-10.604 8.3598-15.479 10.61-3.7333 1.723-5.875 1.625-5.875 1.625s6.75-1.75 9.375 0.875 2.5 5.125 2.5 5.125 6.5-10.625 7.375-12.75 2.3536-5.7348 2.1036-5.4848z" fill="url(#ap)"/>
 <path d="m318.12 424.61c-9.7106 10.638-24.704 9.8389-35.375 0.375 8.5116 3.9607 26.418 1.4024 35.375-0.375z" fill="url(#ak)"/>
 <path d="m310.75 430.49c-7.1522 3.5604-14.128 3.1244-22.875-1.125 0.25 0.5 3.4903 6.018 4.75 7.125 4.125 3.625 11.75 2.125 13.75 0.25s5.375-6.875 4.375-6.25z" fill="url(#aj)"/>
 <path d="m298.05 422.51c-4.0659 1.0607-5.1265 1.2374-7.2478 1.2374s-11.844-3.0052-11.844-3.0052-5.3033-8.1317-4.5962-10.607 3.8891-8.8388 7.2478-9.1924 4.4194-4.2426 6.5407 0.53033 5.3033 10.43 6.364 14.672 4.0659 6.1872 3.5355 6.364z" fill="url(#ai)"/>
 <path d="m291.59 405.62c-0.62519-3.1855-2.602-6.28-1.8562-9.4576 0.79549-1.6794 2.0329-1.9446 2.0329-1.9446-6.2641 0.75794-2.3107 8.2523-0.17678 11.402z" fill="url(#ao)"/>
 <path d="m246.34 345.7c-3.3358-1.9571-6.1986-7.859-6.3964-10.493-0.84513-11.249-1.3358-18.391-0.68934-24.348 0.57657-5.3132 3.2374-16.553 3.2374-16.553s-0.7929 21.116-0.13389 32.255c0.44832 7.5779 3.7019 18.682 3.9822 19.139z" fill="url(#ac)"/>
 <path d="m281.25 419.61c-3.25 1.5-5.75 2.5-4.25 5.5s-2.5-0.75-2.5-3.25 2-2.75 3.5-2.75 3 0 3.25 0.5z" fill="#849f1b"/>
</svg>
